<svg id="11a72de9-6862-4f0d-9ac5-c6b0389f43f0" data-name="Layer 1" xmlns="http://www.w3.org/2000/svg" viewBox="0 0 362.12 218.08"><title>code-laptop</title><rect x="25.62" width="310.87" height="200.19" rx="17.08" ry="17.08" style="fill:#423d17"/><path d="M96.63,333.08a17.08,17.08,0,0,0,14.65,8.3H388a17.08,17.08,0,0,0,17.08-17.09v-166a17,17,0,0,0-2.43-8.79Z" transform="translate(-68.58 -141.19)" style="fill:#332f15"/><rect x="42.7" y="17.08" width="276.71" height="166.02" style="fill:#5a5634"/><polygon points="42.7 183.11 319.41 183.11 319.41 17.08 319.41 17.08 42.7 183.11 42.7 183.11" style="fill:#4a451d"/><path d="M430.69,333.64a25.62,25.62,0,0,1-25.62,25.62H94.2a25.62,25.62,0,0,1-25.62-25.62Z" transform="translate(-68.58 -141.19)" style="fill:#939393"/><path d="M280.09,333.64a12.81,12.81,0,0,1-12.81,12.81H232a12.8,12.8,0,0,1-12.81-12.81Z" transform="translate(-68.58 -141.19)" style="fill:#42413c"/><path d="M219,277.12a7.44,7.44,0,0,1-5.3-2.2l-30.46-30.46a7.48,7.48,0,0,1,0-10.6l30.46-30.47A7.5,7.5,0,0,1,224.3,214l-25.16,25.16,25.15,25.16a7.5,7.5,0,0,1-5.3,12.8Z" transform="translate(-68.58 -141.19)" style="fill:#ffd44c"/><path d="M287.35,277.12a7.5,7.5,0,0,1-5.3-12.8l25.16-25.16L282.05,214a7.5,7.5,0,0,1,10.61-10.61l30.46,30.47a7.48,7.48,0,0,1,0,10.6l-30.46,30.46A7.48,7.48,0,0,1,287.35,277.12Z" transform="translate(-68.58 -141.19)" style="fill:#ffd44c"/><path d="M236,289.42a7.5,7.5,0,0,1-7-10.29l34.28-85.52a7.5,7.5,0,1,1,13.92,5.58L243,284.71A7.52,7.52,0,0,1,236,289.42Z" transform="translate(-68.58 -141.19)" style="fill:#ffd44c"/></svg>